<?xml version="1.0" standalone="no"?>
<!DOCTYPE svg PUBLIC "-//W3C//DTD SVG 20010904//EN"
 "http://www.w3.org/TR/2001/REC-SVG-20010904/DTD/svg10.dtd">
<svg version="1.0" xmlns="http://www.w3.org/2000/svg"
 width="900.000000pt" height="900.000000pt" viewBox="0 0 900.000000 900.000000"
 preserveAspectRatio="xMidYMid meet">
<metadata>
Created by potrace 1.14, written by Peter Selinger 2001-2017
</metadata>
<g transform="translate(0.000000,900.000000) scale(0.100000,-0.100000)"
fill="#000000" stroke="none">
<path d="M3275 7634 c-291 -194 -615 -411 -720 -481 -281 -187 -380 -259 -424
-306 -22 -23 -113 -141 -202 -262 -90 -121 -260 -350 -378 -510 -119 -159
-258 -346 -309 -415 -50 -69 -182 -246 -292 -394 -110 -148 -200 -276 -200
-285 0 -9 7 -36 16 -61 56 -165 283 -815 316 -905 22 -60 64 -180 93 -265 91
-266 242 -682 269 -744 26 -59 92 -178 171 -311 23 -38 55 -92 70 -120 16 -27
54 -95 85 -150 148 -260 696 -1214 716 -1247 13 -20 32 -42 42 -47 10 -5 67
-12 128 -16 114 -6 218 -12 344 -20 41 -3 116 -7 165 -10 86 -5 151 -9 310
-20 39 -3 122 -7 185 -10 63 -3 142 -8 175 -10 33 -2 112 -7 175 -10 63 -3
133 -8 155 -10 22 -2 92 -7 155 -10 63 -4 133 -8 155 -10 22 -2 87 -7 145 -10
58 -3 131 -8 163 -10 44 -3 98 6 235 40 336 83 557 137 567 139 104 21 1173
292 1182 300 6 6 48 83 93 171 95 184 254 495 380 740 48 94 130 253 182 355
247 479 291 566 373 724 l87 169 -6 71 c-8 84 -14 156 -21 251 -7 82 -14 170
-20 240 -2 28 -7 86 -10 130 -3 44 -8 107 -10 140 -3 33 -7 89 -10 125 -2 36
-7 101 -10 145 -3 44 -8 112 -10 150 -3 39 -7 90 -10 115 -2 25 -7 81 -10 125
-3 44 -7 105 -10 135 -10 118 -15 187 -31 425 -3 50 -12 104 -19 120 -7 17
-41 59 -75 95 -54 56 -382 397 -520 541 -87 89 -398 414 -450 469 -84 89 -255
266 -379 394 l-116 120 -235 57 c-129 32 -413 100 -630 153 -475 115 -1459
355 -1480 360 -8 3 -253 -155 -545 -350z"/>
</g>
</svg>
